<?xml version="1.0" encoding="UTF-8"?>
<svg xmlns="http://www.w3.org/2000/svg" viewBox="0 0 720 450">
  <path fill="#750787" d="M0 0h720v450H0z" />
  <path fill="#004dff" d="M0 0h720v375H0z" />
  <path fill="#008026" d="M0 0h720v300H0z" />
  <path fill="#ff0" d="M0 0h720v225H0z" />
  <path fill="#ff8c00" d="M0 0h720v150H0z" />
  <path fill="#e40303" d="M0 0h720v75H0z" />
  <path fill="#fff" d="M180 0h360v450H180z" />
  <path fill="#e40303"
    d="m360 78.75-24.56 45.81c-2.79 4.98-7.78 4.52-12.77 1.74l-17.78-9.21 13.25 70.36c2.79 12.86-6.15 12.86-10.57 7.3l-31.03-34.74-5.04 17.64c-.58 2.32-3.14 4.75-6.97 4.17l-39.24-8.25 10.31 37.47c2.21 8.34 3.93 11.79-2.23 13.99l-13.99 6.57 67.55 54.87c2.67 2.07 4.02 5.81 3.07 9.19l-5.91 19.4c23.26-2.68 44.1-6.71 67.37-9.2 2.05-.22 5.49 3.17 5.48 5.55l-3.08 71.08h11.31l-1.78-70.93c-.01-2.38 3.11-5.92 5.16-5.7 23.27 2.48 44.11 6.52 67.37 9.2l-5.91-19.4c-.95-3.38.4-7.11 3.07-9.19l67.55-54.87-13.99-6.57c-6.16-2.2-4.43-5.65-2.23-13.99l10.31-37.47-39.24 8.25c-3.83.58-6.39-1.85-6.97-4.17l-5.04-17.64-31.03 34.74c-4.41 5.56-13.35 5.56-10.57-7.3l13.25-70.36-17.78 9.21c-4.99 2.78-9.99 3.24-12.77-1.74" />
</svg>